<svg width="134" height="42" viewBox="0 0 134 42" fill="none" xmlns="http://www.w3.org/2000/svg">
<path d="M128.151 10.2775C127.351 9.25245 126.101 8.75244 124.451 8.75244C122.801 8.75244 121.576 9.25245 120.776 10.2775C119.976 11.3025 119.551 12.4775 119.551 13.8776C119.551 15.2776 119.951 16.4776 120.776 17.4776C121.576 18.4777 122.826 18.9777 124.451 18.9777C126.101 18.9777 127.326 18.4777 128.151 17.4776C128.951 16.4776 129.376 15.2776 129.376 13.8776C129.351 12.5025 128.951 11.3025 128.151 10.2775ZM126.126 16.1026C125.726 16.6276 125.176 16.8776 124.426 16.8776C123.701 16.8776 123.126 16.6276 122.726 16.1026C122.326 15.5776 122.126 14.8276 122.126 13.8776C122.126 12.9275 122.326 12.1775 122.726 11.6525C123.126 11.1275 123.676 10.8775 124.426 10.8775C125.151 10.8775 125.726 11.1275 126.126 11.6525C126.526 12.1775 126.726 12.9025 126.726 13.8776C126.726 14.8526 126.526 15.5776 126.126 16.1026Z" fill="#273474"/>
<path d="M107.45 9.42799C106.625 9.00298 105.7 8.80298 104.625 8.80298C103 8.80298 101.85 9.22799 101.175 10.078C100.75 10.628 100.525 11.303 100.475 12.1531H102.9C102.95 11.778 103.075 11.478 103.25 11.278C103.5 10.978 103.925 10.828 104.525 10.828C105.075 10.828 105.475 10.903 105.75 11.053C106.025 11.203 106.175 11.478 106.175 11.8781C106.175 12.2031 106 12.4281 105.625 12.6031C105.425 12.7031 105.1 12.7531 104.625 12.8281L103.775 12.9281C102.8 13.0531 102.05 13.2531 101.55 13.5531C100.625 14.0781 100.175 14.9281 100.175 16.1281C100.175 17.0282 100.45 17.7532 101.025 18.2532C101.6 18.7532 102.325 18.9532 103.2 19.0032C108.7 19.2532 108.625 16.1031 108.675 15.4531V11.828C108.675 10.653 108.275 9.853 107.45 9.42799ZM106.175 14.9281C106.15 15.7781 105.925 16.3532 105.45 16.6782C104.975 17.0032 104.475 17.1532 103.925 17.1532C103.575 17.1532 103.275 17.0532 103.05 16.8782C102.8 16.6782 102.7 16.3782 102.7 15.9531C102.7 15.4781 102.9 15.1031 103.3 14.8781C103.525 14.7531 103.925 14.6281 104.45 14.5281L105.025 14.4281C105.3 14.3781 105.525 14.3281 105.7 14.2531C105.875 14.2031 106.025 14.1031 106.2 14.0031V14.9281H106.175Z" fill="#273474"/>
<path d="M94.9251 10.9534C95.5501 10.9534 96.0251 11.1534 96.3001 11.5284C96.5001 11.8034 96.6252 12.1284 96.6752 12.5034H99.3752C99.2252 11.1284 98.7502 10.1783 97.9502 9.62833C97.1502 9.10331 96.1001 8.82831 94.8251 8.82831C93.3251 8.82831 92.15 9.27832 91.325 10.2033C90.475 11.1284 90.05 12.4034 90.05 14.0534C90.05 15.5035 90.425 16.7035 91.2 17.6035C91.975 18.5285 93.1751 18.9786 94.8001 18.9786C96.4251 18.9786 97.6502 18.4285 98.5002 17.3285C99.0252 16.6535 99.3002 15.9285 99.3752 15.1535H96.6752C96.6252 15.6535 96.4501 16.0785 96.2001 16.3785C95.9501 16.7035 95.5001 16.8535 94.8751 16.8535C94.0001 16.8535 93.4001 16.4535 93.1001 15.6535C92.9251 15.2285 92.8501 14.6534 92.8501 13.9534C92.8501 13.2284 92.9501 12.6284 93.1001 12.1784C93.4251 11.3784 94.0251 10.9534 94.9251 10.9534Z" fill="#273474"/>
<path d="M89.326 8.85251C83.7509 8.85251 84.1009 13.7776 84.1009 13.7776V18.7777H86.6259V14.0776C86.6259 13.3026 86.726 12.7276 86.926 12.3776C87.276 11.7276 87.951 11.4026 88.951 11.4026C89.026 11.4026 89.126 11.4026 89.251 11.4026C89.376 11.4026 89.526 11.4276 89.676 11.4276V8.85251C89.576 8.85251 89.501 8.85252 89.451 8.82751C89.426 8.85252 89.376 8.85251 89.326 8.85251Z" fill="#273474"/>
<path d="M80.0497 16.1535C79.9497 16.3035 79.8247 16.4285 79.6997 16.5285C79.3497 16.8285 78.8497 16.9035 78.2997 16.9035C77.7497 16.9035 77.3497 16.8285 76.9497 16.5785C76.3247 16.2035 75.9746 15.5285 75.9246 14.5784H82.9248C82.9248 13.7534 82.8998 13.1284 82.8498 12.6784C82.7248 11.9284 82.4748 11.2534 82.0748 10.7034C81.6498 10.0533 81.0748 9.57833 80.4247 9.27832C79.7497 8.97831 78.9997 8.82831 78.1747 8.82831C76.7747 8.82831 75.6246 9.27832 74.7496 10.1533C73.8746 11.0534 73.4246 12.3034 73.4246 13.9784C73.4246 15.7535 73.9246 17.0285 74.8996 17.8285C75.8746 18.6285 76.9997 19.0036 78.2747 19.0036C79.8247 19.0036 81.0248 18.5285 81.8748 17.6035C82.3498 17.1035 82.6248 16.6285 82.7498 16.1535H80.0497ZM76.6747 11.4534C77.0247 11.0784 77.5247 10.9034 78.1747 10.9034C78.7747 10.9034 79.2747 11.0784 79.6747 11.4284C80.0747 11.7784 80.2997 12.2784 80.3497 12.9534H75.9996C76.0746 12.3284 76.2997 11.8284 76.6747 11.4534Z" fill="#273474"/>
<path d="M72.4002 18.7785H70.0751V12.9784C70.0751 12.4534 69.9001 11.1784 68.3751 11.1784C67.35 11.1784 66.625 11.9034 66.625 12.9784V18.7785H64.325V12.9784C64.325 12.4534 64.175 11.1784 62.6499 11.1784C61.6249 11.1784 60.8999 11.9034 60.8999 12.9784V18.7785H58.5999V13.0284C58.5999 10.6284 60.1999 8.82831 62.6499 8.82831C63.875 8.82831 64.875 9.35332 65.525 10.1783C66.2 9.35332 67.225 8.82831 68.4001 8.82831C70.9251 8.82831 72.4002 10.5784 72.4002 13.0284V18.7785Z" fill="#273474"/>
<path d="M118.801 5.80265C118.801 5.80265 116.251 5.52765 116.251 7.57769V10.2778C115.976 9.82775 115.601 9.47774 115.151 9.22773C114.701 8.97772 114.176 8.85272 113.601 8.85272C112.351 8.85272 111.326 9.32773 110.576 10.2528C109.826 11.2028 109.451 12.5528 109.451 14.1778C109.451 15.6029 109.826 16.7529 110.601 17.6779C111.376 18.578 112.876 18.978 114.201 18.978C118.851 18.978 118.801 15.0029 118.801 15.0029V5.80265ZM115.776 16.1279C115.401 16.6529 114.876 16.9279 114.151 16.9279C113.451 16.9279 112.901 16.6529 112.551 16.1279C112.201 15.6029 112.026 14.8279 112.026 13.9278C112.026 13.1028 112.201 12.4278 112.551 11.8528C112.901 11.3028 113.426 11.0278 114.176 11.0278C114.651 11.0278 115.076 11.1778 115.451 11.4778C116.051 11.9778 116.351 12.8778 116.351 14.0528C116.326 14.9029 116.126 15.6029 115.776 16.1279Z" fill="#273474"/>
<path d="M89.825 30.8535C89.725 31.0035 89.6 31.1285 89.475 31.2285C89.125 31.5285 88.625 31.6285 88.0499 31.6285C87.5249 31.6285 87.0999 31.5535 86.7249 31.3035C86.0999 30.9285 85.7749 30.2534 85.7249 29.3034H92.65C92.65 28.4784 92.625 27.8534 92.575 27.4284C92.45 26.6784 92.2 26.0283 91.825 25.4533C91.4 24.8033 90.85 24.3533 90.175 24.0533C89.5 23.7533 88.775 23.6033 87.9499 23.6033C86.5499 23.6033 85.4249 24.0533 84.5499 24.9283C83.6749 25.8033 83.2498 27.0784 83.2498 28.7284C83.2498 30.4784 83.7249 31.7535 84.6999 32.5285C85.6749 33.3035 86.7749 33.7035 88.0499 33.7035C89.575 33.7035 90.775 33.2285 91.625 32.3035C92.075 31.8285 92.375 31.3285 92.5 30.8535H89.825V30.8535ZM86.4749 26.1783C86.8249 25.8283 87.3249 25.6283 87.9499 25.6283C88.5249 25.6283 89.025 25.8033 89.425 26.1533C89.825 26.5033 90.05 27.0034 90.1 27.6534H85.8249C85.8999 27.0284 86.1249 26.5533 86.4749 26.1783Z" fill="#273474"/>
<path d="M72.475 23.6029C71.9 23.6029 71.375 23.7279 70.925 23.9779C70.4749 24.2279 70.0999 24.5779 69.8249 25.0279V20.4778C69.8249 20.4778 67.2749 20.2278 67.2749 22.3029V29.678C67.2749 29.678 67.2249 33.6781 71.875 33.6781C73.2 33.6781 74.7 33.2781 75.4751 32.3781C76.2501 31.4781 76.6251 30.303 76.6251 28.878C76.6251 27.253 76.2501 25.9529 75.5001 25.0029C74.75 24.0779 73.725 23.6029 72.475 23.6029ZM73.525 30.828C73.175 31.3531 72.65 31.6281 71.925 31.6281C71.225 31.6281 70.6749 31.3531 70.2999 30.828C69.9249 30.303 69.7499 29.628 69.7499 28.778C69.7499 27.603 70.0499 26.778 70.6499 26.2529C71.025 25.9529 71.425 25.8029 71.925 25.8029C72.65 25.8029 73.2 26.0779 73.55 26.628C73.9 27.178 74.075 27.878 74.075 28.703C74.05 29.578 73.875 30.303 73.525 30.828Z" fill="#273474"/>
<path d="M82.7497 23.6033C82.7247 23.6033 82.6747 23.6033 82.6247 23.6033C77.0496 23.6033 77.3996 28.5284 77.3996 28.5284V33.4535H79.9246V28.8284C79.9246 28.0534 80.0246 27.4784 80.2246 27.1284C80.5746 26.4783 81.2497 26.1533 82.2497 26.1533C82.3247 26.1533 82.4247 26.1533 82.5497 26.1533C82.6747 26.1533 82.8247 26.1783 82.9747 26.1783V23.6033C82.8497 23.6033 82.7747 23.6033 82.7497 23.6033Z" fill="#273474"/>
<path d="M58.5745 22.328V33.4533H60.9495V20.528C60.9495 20.503 58.5745 20.403 58.5745 22.328Z" fill="#273474"/>
<path d="M65.3994 20.4782H62.8744V23.0033H65.3994V20.4782Z" fill="#273474"/>
<path d="M65.4244 23.8533H62.8744V33.4535H65.4244V23.8533Z" fill="#273474"/>
<path d="M50.4 20.341C50.4 12.1408 40.1748 5.46564 27.5745 5.46564C14.9742 5.46564 4.74896 12.1408 4.74896 20.341V21.216C4.74896 29.9162 13.6742 36.9414 27.5745 36.9414C41.5498 36.9414 50.4 29.9162 50.4 21.216V20.341Z" fill="#273474"/>
<path d="M49.4996 20.3406C49.4996 28.0658 39.6744 34.316 27.5491 34.316C15.4238 34.316 5.5986 28.0658 5.5986 20.3406C5.5986 12.6155 15.4238 6.36531 27.5491 6.36531C39.6994 6.34031 49.4996 12.6155 49.4996 20.3406Z" fill="#FFD207"/>
<path d="M5.89815 25.091C6.94818 27.341 7.9982 28.441 7.9982 28.441C8.47321 27.541 8.49821 27.066 8.99822 26.891C9.74824 26.616 10.0232 27.016 12.4483 27.316C16.2984 27.841 17.9484 27.991 24.6236 27.391C29.4487 26.966 26.2236 21.7659 25.1236 18.9908C24.0236 16.2157 22.8486 13.7407 22.1985 12.3407C21.5485 10.9406 20.7485 9.54059 19.6235 8.34057C18.4984 7.16554 16.5984 5.24049 16.0484 4.79048C15.4984 4.34047 14.5484 5.09049 14.1983 5.3905C13.8483 5.6905 11.7233 6.64053 12.3983 7.59055C12.3983 7.59055 12.7233 8.16556 12.9983 8.34057C13.2733 8.54057 11.4483 7.79055 11.4483 8.86558C11.4483 9.9406 13.1233 9.7656 13.6233 9.9656C14.0983 10.1656 14.5734 10.1656 15.0984 10.4406C15.6234 10.7156 16.4984 11.0656 17.1734 11.0406C17.8734 11.0156 18.0984 10.6656 18.4734 11.5656C18.8235 12.4657 19.6985 14.5407 19.5485 16.6158C19.3985 18.6908 19.5735 21.5159 19.9735 22.5409C19.9735 22.5409 11.8983 18.7408 5.29814 20.0158C5.32314 20.0658 5.07313 23.3409 5.89815 25.091Z" fill="white"/>
<path d="M8.09805 29.1163L7.69804 28.7163C7.64804 28.6663 6.57302 27.5663 5.49799 25.2662C4.64797 23.4412 4.87298 20.1661 4.89798 20.0411L4.92298 19.7411L5.22298 19.6911C10.7481 18.6161 17.1733 20.9911 19.3733 21.8912C19.0983 20.4661 19.0233 18.2411 19.1483 16.641C19.2733 14.791 18.5483 12.941 18.1733 11.9409L18.0983 11.7409C17.9733 11.4159 17.8983 11.3909 17.8983 11.3659C17.8733 11.3659 17.7483 11.3909 17.6733 11.3909C17.5483 11.4159 17.3733 11.4409 17.1983 11.4409C16.2982 11.4659 15.2232 10.9409 14.9232 10.7909C14.6732 10.6659 14.4232 10.5909 14.1482 10.5409C13.9232 10.4909 13.6982 10.4409 13.4482 10.3409C13.3732 10.3159 13.1482 10.2909 12.9732 10.2659C12.2982 10.1909 11.0481 10.0159 11.0481 8.86586C11.0481 8.46585 11.2231 8.24084 11.3731 8.11584C11.5731 7.94083 11.8481 7.89083 12.0981 7.86583C12.0731 7.84083 12.0731 7.81583 12.0731 7.81583C11.8981 7.56583 11.8481 7.29082 11.8981 7.01581C12.0481 6.2658 12.9732 5.71578 13.5982 5.31577C13.7482 5.24077 13.8982 5.14077 13.9482 5.09077C15.1982 4.01574 15.9482 4.16575 16.3232 4.49075C16.8983 4.96576 18.8483 6.91581 19.9483 8.09084C20.9484 9.16586 21.7734 10.4659 22.5734 12.1909L22.6984 12.4409C23.3734 13.866 24.4734 16.216 25.4985 18.8661C25.6735 19.2661 25.8735 19.7411 26.0985 20.2411C27.0485 22.3162 28.1985 24.8912 27.2735 26.4913C26.8235 27.2663 25.9485 27.7163 24.6734 27.8163C17.9733 28.4163 16.2732 28.2663 12.3982 27.7413C11.3481 27.5913 10.7231 27.4413 10.2481 27.3413C9.62309 27.1913 9.44808 27.1663 9.14808 27.2913C8.97307 27.3663 8.89807 27.4663 8.67307 27.9663C8.59806 28.1663 8.47306 28.3913 8.34806 28.6663L8.09805 29.1163ZM5.698 20.3911C5.67299 21.2411 5.62299 23.5912 6.24801 24.9162C6.87302 26.2663 7.52304 27.1913 7.89805 27.6913C7.92305 27.6663 7.92305 27.6163 7.94805 27.5913C8.17305 27.0913 8.34806 26.6913 8.87307 26.4913C9.42308 26.2913 9.77309 26.3663 10.4231 26.5163C10.8731 26.6163 11.4981 26.7663 12.4982 26.8913C16.3232 27.3913 17.9733 27.5413 24.5984 26.9413C25.6235 26.8663 26.2735 26.5413 26.5735 26.0163C27.2985 24.7662 26.2235 22.4162 25.3485 20.5161C25.1235 20.0161 24.8984 19.5411 24.7484 19.1161C23.6984 16.516 22.5984 14.141 21.9484 12.7409L21.8234 12.4909C21.0484 10.8409 20.2733 9.61587 19.3233 8.59085C18.1483 7.34082 16.2982 5.49078 15.7982 5.06577C15.5982 4.91576 15.0482 5.14077 14.4482 5.66578C14.3482 5.74078 14.1982 5.84079 13.9982 5.96579C13.5982 6.21579 12.7482 6.74081 12.6732 7.11582C12.6732 7.16582 12.6732 7.21582 12.7232 7.31582L12.7482 7.34082C12.8732 7.54083 13.0982 7.86583 13.2482 7.96584C13.4732 8.11584 13.4732 8.34084 13.4232 8.49085C13.2982 8.81586 12.9732 8.74085 12.7982 8.69085C12.2982 8.59085 12.0231 8.59085 11.8981 8.66585C11.8731 8.69085 11.8731 8.71585 11.8731 8.81585C11.8731 9.16586 12.1731 9.29087 13.0982 9.41587C13.3732 9.44087 13.5982 9.46587 13.7982 9.56587C13.9732 9.64087 14.1732 9.69088 14.3482 9.74088C14.6482 9.81588 14.9482 9.89088 15.2982 10.0659C15.8482 10.3409 16.6233 10.6409 17.1733 10.6159C17.3233 10.6159 17.4233 10.5909 17.5483 10.5659C18.0483 10.4909 18.4983 10.4909 18.8483 11.3909L18.9233 11.5909C19.2983 12.5659 20.0983 14.591 19.9733 16.641C19.8233 18.7161 20.0233 21.4662 20.3733 22.3912L20.7483 23.3412L19.8233 22.9162C19.7483 22.9162 12.0231 19.3161 5.698 20.3911Z" fill="#273474"/>
<path d="M12.2491 8.66539C12.2491 8.66539 12.9492 8.69039 13.5742 8.9904C13.9742 9.1904 14.1492 9.39041 14.5242 9.21541C14.5742 9.19041 14.6492 9.1654 14.6992 9.1654C15.5742 8.8404 15.5742 8.8404 16.1742 9.54041C16.6742 10.0904 17.0743 10.2154 17.4743 9.99042C16.9743 9.51541 16.4242 9.0404 15.9742 8.49039C15.3992 7.81537 15.4242 7.66537 15.8992 6.96535C15.8742 6.94035 15.8492 6.89035 15.8242 6.86535C15.6742 6.99035 15.4992 7.11536 15.3492 7.24036C15.2492 7.31536 15.1492 7.41536 15.0492 7.51537C14.9242 7.39036 14.7992 7.26536 14.7242 7.11536C14.6492 6.94035 14.6742 6.74035 14.5242 6.54034C14.4992 6.86535 14.4742 7.16536 14.4492 7.51537C14.3242 7.54037 14.1742 7.54037 13.9242 7.56537C14.0992 7.64037 14.2242 7.69037 14.3742 7.76537C14.3492 7.86537 14.3492 7.96538 14.3242 8.09038C14.8492 7.74037 15.1742 7.54037 15.3742 8.41539C14.9742 8.54039 14.6742 8.59039 14.2742 8.66539C13.9992 8.71539 13.1742 7.89037 12.9742 7.69037" fill="#273474"/>
<path d="M48.8996 25.091C47.8496 27.341 46.7995 28.441 46.7995 28.441C46.3245 27.541 46.2995 27.066 45.7995 26.891C45.0495 26.616 44.7745 27.016 42.3494 27.316C38.4993 27.841 37.0993 27.716 30.4241 27.141C25.599 26.716 28.5741 21.7659 29.6991 18.9908C30.7991 16.2157 31.9742 13.7407 32.6242 12.3407C33.2742 10.9406 34.0742 9.54059 35.1993 8.34057C36.2993 7.16554 38.2243 5.24049 38.7743 4.79048C39.3243 4.34047 40.2744 5.09049 40.6244 5.3905C40.9744 5.6905 43.0994 6.64053 42.4244 7.59055C42.4244 7.59055 42.0994 8.16556 41.8244 8.34057C41.5494 8.54057 43.3744 7.79055 43.3744 8.86558C43.3744 9.9406 41.6994 9.7656 41.1994 9.9656C40.7244 10.1656 40.2494 10.1656 39.7244 10.4406C39.1993 10.7156 38.3243 11.0656 37.6493 11.0406C36.9493 11.0156 36.7243 10.6656 36.3493 11.5656C35.9993 12.4657 35.1242 14.5407 35.2743 16.6158C35.4243 18.6908 34.9242 21.6409 34.5242 22.6909C34.5242 22.6909 43.4244 18.6908 50.0246 19.9658C49.9746 19.9908 49.6996 23.3409 48.8996 25.091Z" fill="white"/>
<path d="M42.5239 8.66619C42.5239 8.66619 41.8239 8.69119 41.1988 8.99119C40.7988 9.1912 40.6238 9.3912 40.2488 9.2162C40.1988 9.1912 40.1238 9.1662 40.0738 9.1662C39.1988 8.84119 39.1988 8.84119 38.5988 9.54121C38.0988 10.0912 37.6987 10.2162 37.2987 9.99122C37.7987 9.51621 38.3488 9.0412 38.7988 8.49118C39.3738 7.81617 39.3488 7.66616 38.8738 6.96615C38.8988 6.94115 38.9238 6.89115 38.9488 6.86614C39.0988 6.99115 39.2738 7.11615 39.4238 7.24115C39.5238 7.31616 39.6238 7.41616 39.7238 7.51616C39.8488 7.39116 39.9738 7.26615 40.0488 7.11615C40.1238 6.94115 40.0988 6.74114 40.2488 6.54114C40.2738 6.86615 40.2988 7.16615 40.3238 7.51616C40.4488 7.54116 40.5988 7.54116 40.8488 7.56616C40.6738 7.64116 40.5488 7.69116 40.3988 7.76617C40.4238 7.86617 40.4238 7.96617 40.4488 8.09117C39.9238 7.74117 39.5988 7.54116 39.3988 8.41618C39.7988 8.54118 40.0988 8.59118 40.4988 8.66619C40.7738 8.71619 41.5988 7.89117 41.7988 7.69116" fill="#273474"/>
<path d="M46.4996 13.2659C48.3996 15.341 49.4996 17.766 49.4996 20.3411C49.4996 28.0663 39.6744 34.3164 27.5491 34.3164C15.4238 34.3164 5.59859 28.0663 5.59859 20.3411C5.59859 18.7161 6.0236 17.141 6.84862 15.691L5.8486 15.766C5.12358 17.216 4.72357 18.7661 4.72357 20.3661V21.2411C4.72357 29.9413 13.6488 36.9665 27.5491 36.9665C41.5244 36.9665 50.3747 29.9413 50.3747 21.2411V20.3661C50.3747 17.816 49.3746 15.391 47.6246 13.2909L46.4996 13.2659Z" fill="#273474"/>
<path d="M46.725 28.641C46.575 28.366 46.475 28.116 46.4 27.941C46.175 27.466 46.125 27.341 45.95 27.266C45.65 27.141 45.475 27.191 44.85 27.316C44.375 27.416 43.7249 27.566 42.6999 27.716C38.8248 28.241 37.1498 28.391 30.4246 27.791C29.1496 27.666 28.2746 27.241 27.8246 26.466C26.8995 24.866 28.0496 22.2909 28.9996 20.2159C29.2246 19.7158 29.4246 19.2658 29.5996 18.8408C30.6496 16.2158 31.7497 13.8407 32.3997 12.4157L32.5247 12.1657C33.3247 10.4406 34.1747 9.14059 35.1497 8.06557C36.2498 6.89054 38.1748 4.9405 38.7748 4.46549C39.1748 4.14048 39.8999 3.99047 41.1499 5.0655C41.1999 5.0905 41.3499 5.1905 41.4999 5.2905C42.1249 5.66551 43.0499 6.24053 43.1999 6.99054C43.2499 7.26555 43.1999 7.54056 43.0249 7.79056C43.0249 7.81556 42.9999 7.81556 42.9999 7.84056C43.2499 7.84056 43.5249 7.91557 43.7249 8.09057C43.875 8.21557 44.05 8.44058 44.05 8.84059C44.05 9.99061 42.7749 10.1406 42.1249 10.2406C41.9499 10.2656 41.7249 10.2906 41.6499 10.3156C41.3999 10.4156 41.1749 10.4656 40.9499 10.5156C40.6999 10.5656 40.4249 10.6406 40.1749 10.7656C39.8749 10.9156 38.7998 11.4406 37.8998 11.4156C37.6998 11.4156 37.5498 11.3906 37.4248 11.3656C37.3498 11.3406 37.2248 11.3156 37.1998 11.3406C37.1998 11.3406 37.1248 11.3906 36.9998 11.7157L36.9248 11.9157C36.5498 12.9157 35.8248 14.7407 35.9498 16.6158C36.0748 18.2408 35.9748 20.4659 35.7248 21.8659C37.9248 20.9409 44.35 18.5908 49.8751 19.6658L50.1751 19.7158L50.2001 20.0158C50.2251 20.1659 50.4501 23.4159 49.6001 25.241C48.5251 27.541 47.45 28.641 47.4 28.691L47 29.0911L46.725 28.641ZM49.4001 20.3909C43.0749 19.3158 35.3497 22.8909 35.2747 22.9159L34.3497 23.3409L34.7247 22.3909C35.0997 21.4659 35.2747 18.7158 35.1247 16.6408C34.9747 14.5907 35.7748 12.5657 36.1748 11.5907L36.2498 11.3906C36.5998 10.4656 37.0498 10.4656 37.5498 10.5656C37.6748 10.5906 37.7748 10.5906 37.9248 10.6156C38.4998 10.6406 39.2748 10.3406 39.7999 10.0656C40.1499 9.89061 40.4749 9.81561 40.7499 9.74061C40.9499 9.69061 41.1249 9.64061 41.2999 9.5656C41.4749 9.4906 41.7249 9.4656 41.9999 9.4156C42.9499 9.2906 43.2249 9.16559 43.2249 8.81559C43.2249 8.74058 43.2249 8.69058 43.1999 8.66558C43.0999 8.59058 42.7999 8.59058 42.2999 8.69058C42.1249 8.71558 41.7999 8.79059 41.6749 8.49058C41.6249 8.34058 41.6249 8.14057 41.8499 7.96557C41.9999 7.86556 42.2249 7.54056 42.3499 7.34055L42.3749 7.31555C42.4249 7.24055 42.4249 7.16555 42.4249 7.11555C42.3499 6.71554 41.4999 6.21553 41.0999 5.96552C40.8999 5.84052 40.7499 5.74051 40.6499 5.66551C40.0499 5.1405 39.4998 4.9155 39.2998 5.0655C38.7748 5.49051 36.9248 7.31555 35.7748 8.59058C34.8247 9.5906 34.0497 10.8406 33.2747 12.4907L33.1497 12.7407C32.4997 14.1657 31.3997 16.5158 30.3496 19.1158C30.1746 19.5408 29.9746 20.0158 29.7496 20.5159C28.8746 22.4159 27.8246 24.791 28.5246 26.016C28.8496 26.566 29.4746 26.866 30.4996 26.941C37.1248 27.541 38.7748 27.391 42.5999 26.891C43.5999 26.741 44.225 26.616 44.675 26.516C45.325 26.366 45.675 26.291 46.225 26.491C46.75 26.691 46.925 27.091 47.15 27.591C47.15 27.616 47.175 27.666 47.2 27.691C47.6 27.191 48.2251 26.266 48.8501 24.916C49.4751 23.5909 49.4251 21.2409 49.4001 20.3909Z" fill="#273474"/>
</svg>
